<svg xmlns="http://www.w3.org/2000/svg" viewBox="0 0 32 30"><g fill="none" stroke="#000" stroke-linecap="round" stroke-linejoin="round" stroke-width="2"><path d="M16 29.99L7.11 27.5l-6.1-8.46 1.2-7.7 4.9-8.74L16 2l8.89.61 4.9 8.75 1.2 7.7-6.1 8.45zm0-7.64V30M1.01 19.05l4.74-3.97M9.84 3.72L7.1 2.62m15.06 1.1l2.73-1.1m1.36 12.46L31 19.05" transform="matrix(1.00033 0 0 1.00001 -.01 -1)"/><path d="M22.16 3.72H9.84l-4.1 11.36L16 22.35l10.25-7.27z" transform="matrix(1.00033 0 0 1.00001 -.01 -1)"/></g></svg>