<?xml version="1.0" encoding="UTF-8" standalone="no"?>
<svg
   xmlns:dc="http://purl.org/dc/elements/1.1/"
   xmlns:cc="http://creativecommons.org/ns#"
   xmlns:rdf="http://www.w3.org/1999/02/22-rdf-syntax-ns#"
   xmlns:svg="http://www.w3.org/2000/svg"
   xmlns="http://www.w3.org/2000/svg"
   width="24"
   height="24"
   viewBox="0 0 24 24"
   version="1.1"
   id="svg8">
  <title
     id="title832">Biohazard Symbol</title>
  <defs
     id="defs2" />
  <metadata
     id="metadata5">
    <rdf:RDF>
      <cc:Work
         rdf:about="">
        <dc:format>image/svg+xml</dc:format>
        <dc:type
           rdf:resource="http://purl.org/dc/dcmitype/StillImage" />
        <dc:title>Biohazard Symbol</dc:title>
        <dc:creator>
          <cc:Agent>
            <dc:title>Twitter, Inc and other contributors</dc:title>
          </cc:Agent>
        </dc:creator>
        <dc:date>2019</dc:date>
        <dc:publisher>
          <cc:Agent>
            <dc:title></dc:title>
          </cc:Agent>
        </dc:publisher>
        <cc:license
           rdf:resource="http://creativecommons.org/licenses/by/4.0/" />
        <dc:rights>
          <cc:Agent>
            <dc:title>Copyright 2019 Twitter, Inc and other contributors</dc:title>
          </cc:Agent>
        </dc:rights>
        <dc:identifier>81793426-af1a-4e77-8a3b-ea2fb107f980</dc:identifier>
      </cc:Work>
      <cc:License
         rdf:about="http://creativecommons.org/licenses/by/4.0/">
        <cc:permits
           rdf:resource="http://creativecommons.org/ns#Reproduction" />
        <cc:permits
           rdf:resource="http://creativecommons.org/ns#Distribution" />
        <cc:requires
           rdf:resource="http://creativecommons.org/ns#Notice" />
        <cc:requires
           rdf:resource="http://creativecommons.org/ns#Attribution" />
        <cc:permits
           rdf:resource="http://creativecommons.org/ns#DerivativeWorks" />
      </cc:License>
    </rdf:RDF>
  </metadata>
  <g
     transform="matrix(0.70588235,0,0,0.70588235,-0.70588235,-0.70588235)"
     id="g3784">
    <circle
       style="fill:#f4900c"
       cx="18"
       cy="18"
       r="17"
       id="circle3767" />
    <path
       style="fill:#ffffff"
       d="m 12.866,18.095 c -0.398,-0.153 -0.81,-0.246 -1.246,-0.246 -0.087,0 -0.179,0.012 -0.269,0.019 -0.084,0.006 -0.173,0.031 -0.259,0.041 0.036,2.613 1.536,4.874 3.715,6.006 0.05,-0.079 0.105,-0.154 0.15,-0.237 0.113,-0.21 0.209,-0.432 0.286,-0.666 0.025,-0.076 0.058,-0.146 0.079,-0.223 0.049,-0.186 0.075,-0.369 0.098,-0.552 -1.457,-0.842 -2.455,-2.366 -2.554,-4.142 z m 1.377,-6.056 c 0.206,0.566 0.532,1.065 0.955,1.471 0.799,-0.515 1.745,-0.823 2.764,-0.823 0.996,0 1.919,0.298 2.706,0.791 0.117,-0.115 0.238,-0.219 0.346,-0.352 0.28,-0.346 0.49,-0.714 0.632,-1.109 -1.066,-0.68 -2.328,-1.08 -3.684,-1.08 -1.37,0.001 -2.646,0.408 -3.719,1.102 z m 6.207,10.226 c 0.065,0.586 0.25,1.132 0.582,1.645 0.008,0.012 0.018,0.02 0.026,0.032 2.214,-1.123 3.742,-3.405 3.774,-6.046 -0.163,-0.02 -0.327,-0.036 -0.49,-0.036 -0.443,0 -0.874,0.085 -1.283,0.228 -0.098,1.801 -1.121,3.342 -2.609,4.177 z"
       id="path3769" />
    <path
       style="fill:#ffffff"
       d="m 24.415,27.034 c -2.882,0 -5.217,-2.336 -5.217,-5.217 0,-0.862 0.21,-1.675 0.581,-2.391 l -0.61,-0.354 c -0.277,0.335 -0.691,0.553 -1.16,0.553 -0.474,0 -0.892,-0.223 -1.169,-0.564 l -0.636,0.37 c 0.369,0.715 0.578,1.526 0.578,2.386 0,2.882 -2.336,5.217 -5.217,5.217 -1.574,0 -2.985,-0.698 -3.941,-1.801 l -0.192,0.12 c 1.079,1.361 2.442,2.27 4.122,2.664 0.457,0.107 0.902,0.162 1.342,0.189 0.135,0.008 0.272,0.023 0.406,0.024 0.04,0 0.078,-0.005 0.117,-0.005 0.346,-0.003 0.686,-0.035 1.021,-0.088 0.061,-0.009 0.121,-0.019 0.181,-0.03 1.163,-0.213 2.264,-0.71 3.3,-1.49 0.006,-0.005 0.037,-0.021 0.068,-0.027 0.005,-0.001 0.006,-0.005 0.012,-0.005 0.039,0 0.071,0.026 0.078,0.031 0.114,0.088 0.232,0.165 0.349,0.246 0.136,0.094 0.272,0.186 0.411,0.271 0.147,0.09 0.295,0.179 0.445,0.258 0.255,0.134 0.514,0.251 0.778,0.354 0.121,0.047 0.244,0.087 0.367,0.127 0.299,0.098 0.601,0.183 0.911,0.24 0.064,0.012 0.129,0.016 0.193,0.026 0.317,0.049 0.64,0.076 0.968,0.082 0.063,0.001 0.124,0.006 0.188,0.006 0.277,-0.002 0.558,-0.015 0.843,-0.047 2.06,-0.236 3.728,-1.202 5.027,-2.819 l -0.188,-0.142 c -0.959,1.111 -2.375,1.816 -3.956,1.816 z M 11.563,16.599 c 1.824,0 3.429,0.937 4.362,2.355 l 0.027,0.035 0.008,0.009 c 0.179,-0.103 0.364,-0.215 0.554,-0.318 0.05,-0.027 0.063,-0.058 0.064,-0.096 -0.049,-0.149 -0.083,-0.306 -0.083,-0.472 0,-0.742 0.535,-1.357 1.24,-1.485 v -0.711 c -2.762,-0.134 -4.96,-2.416 -4.96,-5.211 0,-2.542 1.819,-4.659 4.226,-5.122 V 5.336 c -1.116,0.072 -3.487,1.215 -4.553,2.442 -1.488,1.713 -2.074,3.71 -1.779,5.961 0.015,0.111 -0.003,0.164 -0.118,0.21 -3.567,1.43 -5.438,5.283 -4.36,8.978 0.068,0.235 0.157,0.464 0.239,0.701 L 6.636,23.533 C 6.449,22.995 6.345,22.418 6.345,21.816 6.346,18.935 8.682,16.599 11.563,16.599 Z m 18.442,3.062 c -0.491,-2.726 -2.026,-4.631 -4.576,-5.714 -0.1,-0.043 -0.127,-0.088 -0.111,-0.192 0.123,-0.796 0.107,-1.59 -0.033,-2.382 C 25.047,10.03 24.433,8.824 23.573,7.835 L 23.564,7.824 C 23.371,7.603 23.165,7.396 22.947,7.199 L 22.852,7.115 C 22.647,6.936 22.434,6.768 22.209,6.612 22.156,6.575 22.101,6.541 22.047,6.505 21.83,6.363 21.61,6.228 21.378,6.108 21.305,6.07 20.1,5.486 18.985,5.338 v 0.244 c 2.407,0.463 4.226,2.58 4.226,5.122 0,2.796 -2.199,5.078 -4.962,5.211 v 0.708 c 0.72,0.116 1.272,0.735 1.272,1.488 0,0.183 -0.037,0.356 -0.097,0.518 0.008,0.011 0.004,0.022 0.023,0.033 0.194,0.107 0.385,0.22 0.58,0.334 0.928,-1.442 2.546,-2.397 4.388,-2.397 2.882,0 5.217,2.336 5.217,5.217 0,0.596 -0.101,1.168 -0.285,1.701 0.065,0.035 0.195,0.105 0.204,0.106 0.018,-0.044 0.038,-0.089 0.055,-0.135 0.473,-1.24 0.634,-2.52 0.399,-3.827 z"
       id="path3771" />
  </g>
</svg>
