<?xml version="1.0" encoding="UTF-8" standalone="no"?>
<svg
   xmlns:dc="http://purl.org/dc/elements/1.1/"
   xmlns:cc="http://creativecommons.org/ns#"
   xmlns:rdf="http://www.w3.org/1999/02/22-rdf-syntax-ns#"
   xmlns:svg="http://www.w3.org/2000/svg"
   xmlns="http://www.w3.org/2000/svg"
   width="24"
   height="24"
   viewBox="0 0 24 24"
   version="1.1"
   id="svg8">
  <title
     id="title832">Electricity Symbol</title>
  <defs
     id="defs2" />
  <metadata
     id="metadata5">
    <rdf:RDF>
      <cc:Work
         rdf:about="">
        <dc:format>image/svg+xml</dc:format>
        <dc:type
           rdf:resource="http://purl.org/dc/dcmitype/StillImage" />
        <dc:title>Electricity Symbol</dc:title>
        <dc:creator>
          <cc:Agent>
            <dc:title>Twitter, Inc and other contributors</dc:title>
          </cc:Agent>
        </dc:creator>
        <dc:date>2019</dc:date>
        <dc:publisher>
          <cc:Agent>
            <dc:title></dc:title>
          </cc:Agent>
        </dc:publisher>
        <cc:license
           rdf:resource="http://creativecommons.org/licenses/by/4.0/" />
        <dc:rights>
          <cc:Agent>
            <dc:title>Copyright 2019 Twitter, Inc and other contributors</dc:title>
          </cc:Agent>
        </dc:rights>
        <dc:identifier>2a1d0359-3a6e-4b18-b2b8-bbbf0cd11ac9</dc:identifier>
      </cc:Work>
      <cc:License
         rdf:about="http://creativecommons.org/licenses/by/4.0/">
        <cc:permits
           rdf:resource="http://creativecommons.org/ns#Reproduction" />
        <cc:permits
           rdf:resource="http://creativecommons.org/ns#Distribution" />
        <cc:requires
           rdf:resource="http://creativecommons.org/ns#Notice" />
        <cc:requires
           rdf:resource="http://creativecommons.org/ns#Attribution" />
        <cc:permits
           rdf:resource="http://creativecommons.org/ns#DerivativeWorks" />
      </cc:License>
    </rdf:RDF>
  </metadata>
  <path
     style="fill:#ffac33;stroke-width:0.66666669"
     d="M 21.958558,10.434 C 21.861228,10.173333 21.611891,9.9999999 21.333225,9.9999999 h -8.05 L 17.926558,0.972 c 0.146,-0.284 0.07067,-0.6313333 -0.180666,-0.8286667 C 17.624558,0.0473333 17.478558,0 17.333225,0 17.177892,0 17.022558,0.054667 16.897892,0.162 l -4.898,4.23 -9.7686672,8.436667 c -0.210667,0.182 -0.286667,0.476 -0.189334,0.736666 C 2.1392208,13.826 2.3878908,14 2.6665578,14 h 8.0500002 l -4.6433332,9.028 c -0.146,0.284 -0.07067,0.631333 0.180667,0.828667 C 6.3752248,23.952667 6.5212248,24 6.6665578,24 c 0.155334,0 0.310667,-0.05467 0.435334,-0.162 l 4.8980002,-4.23 9.768666,-8.436667 c 0.211333,-0.182 0.286667,-0.476 0.19,-0.737333 z"
     id="path940" />
</svg>
