<?xml version="1.0" encoding="UTF-8" standalone="no"?>
<svg
   xmlns:dc="http://purl.org/dc/elements/1.1/"
   xmlns:cc="http://creativecommons.org/ns#"
   xmlns:rdf="http://www.w3.org/1999/02/22-rdf-syntax-ns#"
   xmlns:svg="http://www.w3.org/2000/svg"
   xmlns="http://www.w3.org/2000/svg"
   xmlns:sodipodi="http://sodipodi.sourceforge.net/DTD/sodipodi-0.dtd"
   xmlns:inkscape="http://www.inkscape.org/namespaces/inkscape"
   id="svg8"
   version="1.1"
   viewBox="0 0 24 24"
   height="24"
   width="24"
   inkscape:version="0.92.4 (5da689c313, 2019-01-14)"
   sodipodi:docname="fire.svg">
  <title
     id="title832">Fire Symbol</title>
  <sodipodi:namedview
     pagecolor="#ffffff"
     bordercolor="#666666"
     borderopacity="1"
     objecttolerance="10"
     gridtolerance="10"
     guidetolerance="10"
     inkscape:pageopacity="0"
     inkscape:pageshadow="2"
     inkscape:window-width="2560"
     inkscape:window-height="1377"
     id="namedview6"
     showgrid="false"
     inkscape:zoom="20.85965"
     inkscape:cx="16.37141"
     inkscape:cy="7.7871644"
     inkscape:window-x="1912"
     inkscape:window-y="-8"
     inkscape:window-maximized="1"
     inkscape:current-layer="g830" />
  <defs
     id="defs2" />
  <metadata
     id="metadata5">
    <rdf:RDF>
      <cc:Work
         rdf:about="">
        <dc:format>image/svg+xml</dc:format>
        <dc:type
           rdf:resource="http://purl.org/dc/dcmitype/StillImage" />
        <dc:title>Fire Symbol</dc:title>
        <dc:creator>
          <cc:Agent>
            <dc:title>Twitter, Inc and other contributors</dc:title>
          </cc:Agent>
        </dc:creator>
        <dc:date>2019</dc:date>
        <dc:publisher>
          <cc:Agent>
            <dc:title></dc:title>
          </cc:Agent>
        </dc:publisher>
        <cc:license
           rdf:resource="http://creativecommons.org/licenses/by/4.0/" />
        <dc:rights>
          <cc:Agent>
            <dc:title>Copyright 2019 Twitter, Inc and other contributors</dc:title>
          </cc:Agent>
        </dc:rights>
        <dc:identifier>21d2bb69-3186-4c48-bb03-35f8460c2133</dc:identifier>
      </cc:Work>
      <cc:License
         rdf:about="http://creativecommons.org/licenses/by/4.0/">
        <cc:permits
           rdf:resource="http://creativecommons.org/ns#Reproduction" />
        <cc:permits
           rdf:resource="http://creativecommons.org/ns#Distribution" />
        <cc:requires
           rdf:resource="http://creativecommons.org/ns#Notice" />
        <cc:requires
           rdf:resource="http://creativecommons.org/ns#Attribution" />
        <cc:permits
           rdf:resource="http://creativecommons.org/ns#DerivativeWorks" />
      </cc:License>
    </rdf:RDF>
  </metadata>
  <g
     id="g830"
     transform="matrix(0.67647059,0,0,0.66744535,-0.17647059,-0.0280681)">
    <path
       id="path816"
       d="M 35,19 C 35,16.938 34.633,14.961 33.96,13.132 33.5,18.521 30.627,21.289 27.625,20 24.813,18.792 26.708,14.083 26.848,11.836 27.084,8.027 26.836,3.667 19.917,0.042 c 2.875,5.5 0.333,8.917 -2.333,9.125 -2.958,0.231 -5.667,-2.542 -4.667,-7.042 -3.238,2.386 -3.332,6.402 -2.333,9 1.042,2.708 -0.042,4.958 -2.583,5.208 C 5.161,16.613 3.583,13.292 5.038,8 2.52,10.965 1,14.805 1,19 c 0,9.389 7.611,17 17,17 9.389,0 17,-7.611 17,-17 z"
       inkscape:connector-curvature="0"
       style="display:inline;fill:#f4900c" />
    <path
       id="path818"
       d="m 28.394,23.999 c 0.148,3.084 -2.561,4.293 -4.019,3.709 -2.106,-0.843 -1.541,-2.291 -2.083,-5.291 -0.542,-3 -2.625,-5.083 -5.708,-6 2.25,6.333 -1.247,8.667 -3.08,9.084 C 11.632,25.927 9.751,25.5 9.536,21.494 7.352,23.668 6,26.676 6,30 6,30.368 6.023,30.73 6.055,31.09 9.125,34.124 13.342,36 18,36 22.658,36 26.875,34.124 29.945,31.09 29.977,30.73 30,30.368 30,30 30,27.813 29.416,25.764 28.394,23.999 Z"
       inkscape:connector-curvature="0"
       style="fill:#ffcc4d" />
  </g>
</svg>
