<?xml version="1.0" encoding="UTF-8" standalone="no"?>
<svg
   xmlns:dc="http://purl.org/dc/elements/1.1/"
   xmlns:cc="http://creativecommons.org/ns#"
   xmlns:rdf="http://www.w3.org/1999/02/22-rdf-syntax-ns#"
   xmlns:svg="http://www.w3.org/2000/svg"
   xmlns="http://www.w3.org/2000/svg"
   width="24"
   height="24"
   viewBox="0 0 24 24"
   version="1.1"
   id="svg8">
  <title
     id="title832">Impact Symbol</title>
  <defs
     id="defs2" />
  <metadata
     id="metadata5">
    <rdf:RDF>
      <cc:Work
         rdf:about="">
        <dc:format>image/svg+xml</dc:format>
        <dc:type
           rdf:resource="http://purl.org/dc/dcmitype/StillImage" />
        <dc:title>Impact Symbol</dc:title>
        <dc:creator>
          <cc:Agent>
            <dc:title>Twitter, Inc and other contributors</dc:title>
          </cc:Agent>
        </dc:creator>
        <dc:date>2019</dc:date>
        <dc:publisher>
          <cc:Agent>
            <dc:title />
          </cc:Agent>
        </dc:publisher>
        <cc:license
           rdf:resource="http://creativecommons.org/licenses/by/4.0/" />
        <dc:rights>
          <cc:Agent>
            <dc:title>Copyright 2019 Twitter, Inc and other contributors</dc:title>
          </cc:Agent>
        </dc:rights>
        <dc:identifier>a98dfde8-ad9f-416e-85bb-a1761770031f</dc:identifier>
      </cc:Work>
      <cc:License
         rdf:about="http://creativecommons.org/licenses/by/4.0/">
        <cc:permits
           rdf:resource="http://creativecommons.org/ns#Reproduction" />
        <cc:permits
           rdf:resource="http://creativecommons.org/ns#Distribution" />
        <cc:requires
           rdf:resource="http://creativecommons.org/ns#Notice" />
        <cc:requires
           rdf:resource="http://creativecommons.org/ns#Attribution" />
        <cc:permits
           rdf:resource="http://creativecommons.org/ns#DerivativeWorks" />
      </cc:License>
    </rdf:RDF>
  </metadata>
  <path
     style="fill:#be1931;stroke-width:0.70294654"
     d="M 1.1422881,16.179017 0,13.999883 1.0895671,13.42909 C 2.7717181,12.546892 4.5916467,11.476305 4.8946166,9.9270107 5.1301038,8.7221604 4.4651163,7.1834105 2.917931,5.3536407 L 2.1236014,4.4145041 4.0018745,2.825845 4.7962041,3.7649815 C 6.8776288,6.2267003 7.7000762,8.3966962 7.3085349,10.398688 6.7546132,13.236483 3.811376,14.778748 2.2311522,15.607522 Z M 14.000586,24 13.429793,22.910433 c -0.882198,-1.682854 -1.952785,-3.50208 -3.5020793,-3.80505 -1.2041474,-0.23619 -2.7436003,0.429501 -4.57337,1.976686 l -0.9391366,0.79433 -1.5886592,-1.878274 0.9391366,-0.794329 c 2.4610158,-2.082128 4.6289028,-2.905981 6.6337065,-2.512331 2.837795,0.553922 4.38006,3.496456 5.208833,5.077383 l 0.570793,1.089567 z m 5.996837,-2.827251 -0.79433,-0.939136 c -2.082128,-2.461719 -2.903872,-4.631715 -2.512331,-6.63441 0.553922,-2.837092 3.496456,-4.3793565 5.077383,-5.2081304 L 22.857712,7.82028 24,9.9994142 22.910433,10.570207 c -1.682854,0.882198 -3.50208,1.952785 -3.80505,3.501376 -0.235487,1.205554 0.429501,2.743601 1.975983,4.57337 l 0.79433,0.939137 z M 14.579111,7.4034327 c -0.331088,0 -0.656552,-0.031633 -0.978502,-0.094195 C 10.762814,6.755316 9.2205495,3.812079 8.3917755,2.2318552 L 7.820983,1.1422881 10.000117,0 10.571613,1.0895671 c 0.882198,1.682151 1.952785,3.5020796 3.501376,3.8050495 1.202742,0.2347841 2.742898,-0.4287974 4.57337,-1.9766856 l 0.939137,-0.7943296 1.588659,1.8782731 -0.939137,0.7943296 c -2.067365,1.747525 -3.928065,2.6072286 -5.655907,2.6072286 z"
     id="path929" />
</svg>
