<?xml version="1.0" encoding="UTF-8" standalone="no"?>
<svg
   xmlns:dc="http://purl.org/dc/elements/1.1/"
   xmlns:cc="http://creativecommons.org/ns#"
   xmlns:rdf="http://www.w3.org/1999/02/22-rdf-syntax-ns#"
   xmlns:svg="http://www.w3.org/2000/svg"
   xmlns="http://www.w3.org/2000/svg"
   width="24"
   height="24"
   viewBox="0 0 24 24"
   version="1.1"
   id="svg8">
  <title
     id="title832">Repeat Symbol</title>
  <defs
     id="defs2" />
  <metadata
     id="metadata5">
    <rdf:RDF>
      <cc:Work
         rdf:about="">
        <dc:format>image/svg+xml</dc:format>
        <dc:type
           rdf:resource="http://purl.org/dc/dcmitype/StillImage" />
        <dc:title>Repeat Symbol</dc:title>
        <dc:creator>
          <cc:Agent>
            <dc:title>Twitter, Inc and other contributors</dc:title>
          </cc:Agent>
        </dc:creator>
        <dc:date>2019</dc:date>
        <dc:publisher>
          <cc:Agent>
            <dc:title />
          </cc:Agent>
        </dc:publisher>
        <cc:license
           rdf:resource="http://creativecommons.org/licenses/by/4.0/" />
        <dc:rights>
          <cc:Agent>
            <dc:title>Copyright 2019 Twitter, Inc and other contributors</dc:title>
          </cc:Agent>
        </dc:rights>
        <dc:identifier>71b3605d-b179-45f3-9e8d-c0042d492b34</dc:identifier>
      </cc:Work>
      <cc:License
         rdf:about="http://creativecommons.org/licenses/by/4.0/">
        <cc:permits
           rdf:resource="http://creativecommons.org/ns#Reproduction" />
        <cc:permits
           rdf:resource="http://creativecommons.org/ns#Distribution" />
        <cc:requires
           rdf:resource="http://creativecommons.org/ns#Notice" />
        <cc:requires
           rdf:resource="http://creativecommons.org/ns#Attribution" />
        <cc:permits
           rdf:resource="http://creativecommons.org/ns#DerivativeWorks" />
      </cc:License>
    </rdf:RDF>
  </metadata>
  <g
     transform="scale(0.66666667)"
     id="g881">
    <path
       style="fill:#3b88c3"
       d="m 36,32 c 0,2.209 -1.791,4 -4,4 H 4 C 1.791,36 0,34.209 0,32 V 4 C 0,1.791 1.791,0 4,0 h 28 c 2.209,0 4,1.791 4,4 z"
       id="path867" />
    <path
       style="fill:#ffffff"
       d="m 22.242,22.242 2.829,2.829 C 21.166,28.976 14.834,28.975 10.928,25.07 8.681,22.824 7.734,19.774 8.074,16.845 l -4.037,0.367 c -0.215,3.84 1.128,7.752 4.062,10.687 5.467,5.467 14.333,5.468 19.799,0 l 2.828,2.828 0.849,-9.334 z M 27.899,8.1 C 22.431,2.633 13.568,2.633 8.1,8.1 L 5.272,5.272 4.423,14.606 13.757,13.757 10.928,10.928 c 3.906,-3.905 10.236,-3.905 14.142,0 2.248,2.247 3.194,5.297 2.856,8.226 l 4.036,-0.366 C 32.178,14.947 30.834,11.035 27.899,8.1 Z"
       id="path869" />
  </g>
</svg>
