<?xml version="1.0" encoding="UTF-8" standalone="no"?>
<svg
   xmlns:dc="http://purl.org/dc/elements/1.1/"
   xmlns:cc="http://creativecommons.org/ns#"
   xmlns:rdf="http://www.w3.org/1999/02/22-rdf-syntax-ns#"
   xmlns:svg="http://www.w3.org/2000/svg"
   xmlns="http://www.w3.org/2000/svg"
   width="24"
   height="24"
   viewBox="0 0 24 24"
   version="1.1"
   id="svg8">
  <title
     id="title832">Shine Symbol</title>
  <defs
     id="defs2" />
  <metadata
     id="metadata5">
    <rdf:RDF>
      <cc:Work
         rdf:about="">
        <dc:format>image/svg+xml</dc:format>
        <dc:type
           rdf:resource="http://purl.org/dc/dcmitype/StillImage" />
        <dc:title>Shine Symbol</dc:title>
        <dc:creator>
          <cc:Agent>
            <dc:title>Twitter, Inc and other contributors</dc:title>
          </cc:Agent>
        </dc:creator>
        <dc:date>2019</dc:date>
        <dc:publisher>
          <cc:Agent>
            <dc:title></dc:title>
          </cc:Agent>
        </dc:publisher>
        <cc:license
           rdf:resource="http://creativecommons.org/licenses/by/4.0/" />
        <dc:rights>
          <cc:Agent>
            <dc:title>Copyright 2019 Twitter, Inc and other contributors</dc:title>
          </cc:Agent>
        </dc:rights>
        <dc:identifier>f6582b3e-78e1-43ae-9a7d-0aaef99d3414</dc:identifier>
      </cc:Work>
      <cc:License
         rdf:about="http://creativecommons.org/licenses/by/4.0/">
        <cc:permits
           rdf:resource="http://creativecommons.org/ns#Reproduction" />
        <cc:permits
           rdf:resource="http://creativecommons.org/ns#Distribution" />
        <cc:requires
           rdf:resource="http://creativecommons.org/ns#Notice" />
        <cc:requires
           rdf:resource="http://creativecommons.org/ns#Attribution" />
        <cc:permits
           rdf:resource="http://creativecommons.org/ns#DerivativeWorks" />
      </cc:License>
    </rdf:RDF>
  </metadata>
  <g
     transform="matrix(0.66664369,0,0,0.66667577,1.6845693e-4,-3.2971117e-4)"
     id="g3765">
    <path
       style="fill:#ffac33"
       d="m 28.84,17.638 c -0.987,1.044 -1.633,3.067 -1.438,4.493 l 0.892,6.441 c 0.197,1.427 -0.701,2.087 -1.996,1.469 l -5.851,-2.796 c -1.295,-0.62 -3.408,-0.611 -4.7,0.018 L 9.921,30.105 C 8.63,30.734 7.728,30.079 7.914,28.653 L 8.757,22.204 C 8.943,20.777 8.282,18.76 7.287,17.723 L 2.793,13.035 C 1.797,11.998 2.138,10.933 3.548,10.67 l 6.37,-1.188 c 1.41,-0.263 3.116,-1.518 3.793,-2.789 l 3.051,-5.737 c 0.675,-1.271 1.789,-1.274 2.473,-0.009 L 22.33,6.66 c 0.686,1.265 2.4,2.507 3.814,2.758 l 6.378,1.141 c 1.412,0.252 1.761,1.314 0.774,2.359 z"
       id="path3751" />
    <path
       style="fill:#ffd983"
       d="M 9.783,2.181 C 10.806,3.594 12.229,7.098 11.5,7.628 10.772,8.159 7.893,5.718 6.87,4.305 5.848,2.892 5.935,1.637 6.739,1.051 7.543,0.464 8.759,0.769 9.783,2.181 Z M 29.131,4.305 C 28.109,5.718 25.23,8.16 24.5,7.627 c -0.729,-0.53 0.695,-4.033 1.719,-5.445 1.023,-1.414 2.238,-1.719 3.043,-1.131 0.803,0.586 0.89,1.841 -0.131,3.254 z M 16.625,33.291 c -0.001,-1.746 0.898,-5.421 1.801,-5.421 0.897,0 1.798,3.675 1.797,5.42 0,1.747 -0.804,2.712 -1.8,2.71 -0.994,0.002 -1.798,-0.962 -1.798,-2.709 z m 16.179,-9.262 c -1.655,-0.539 -4.858,-2.533 -4.579,-3.395 0.277,-0.858 4.037,-0.581 5.69,-0.041 1.655,0.54 2.321,1.605 2.013,2.556 -0.308,0.95 -1.469,1.42 -3.124,0.88 z M 2.083,20.594 c 1.655,-0.54 5.414,-0.817 5.694,0.044 0.276,0.857 -2.928,2.854 -4.581,3.392 -1.654,0.54 -2.818,0.07 -3.123,-0.88 -0.308,-0.95 0.354,-2.015 2.01,-2.556 z"
       id="path3753" />
  </g>
</svg>
