<?xml version="1.0" encoding="UTF-8" standalone="no"?>
<svg
   xmlns:dc="http://purl.org/dc/elements/1.1/"
   xmlns:cc="http://creativecommons.org/ns#"
   xmlns:rdf="http://www.w3.org/1999/02/22-rdf-syntax-ns#"
   xmlns:svg="http://www.w3.org/2000/svg"
   xmlns="http://www.w3.org/2000/svg"
   width="24"
   height="24"
   viewBox="0 0 24 24"
   version="1.1"
   id="svg8">
  <title
     id="title832">Snowflake Symbol</title>
  <defs
     id="defs2" />
  <metadata
     id="metadata5">
    <rdf:RDF>
      <cc:Work
         rdf:about="">
        <dc:format>image/svg+xml</dc:format>
        <dc:type
           rdf:resource="http://purl.org/dc/dcmitype/StillImage" />
        <dc:title>Snowflake Symbol</dc:title>
        <dc:creator>
          <cc:Agent>
            <dc:title>Twitter, Inc and other contributors</dc:title>
          </cc:Agent>
        </dc:creator>
        <dc:date>2019</dc:date>
        <dc:publisher>
          <cc:Agent>
            <dc:title />
          </cc:Agent>
        </dc:publisher>
        <cc:license
           rdf:resource="http://creativecommons.org/licenses/by/4.0/" />
        <dc:rights>
          <cc:Agent>
            <dc:title>Copyright 2019 Twitter, Inc and other contributors</dc:title>
          </cc:Agent>
        </dc:rights>
        <dc:identifier>e4b05450-fc5a-4de4-9f60-a0fcbd9b46e3</dc:identifier>
      </cc:Work>
      <cc:License
         rdf:about="http://creativecommons.org/licenses/by/4.0/">
        <cc:permits
           rdf:resource="http://creativecommons.org/ns#Reproduction" />
        <cc:permits
           rdf:resource="http://creativecommons.org/ns#Distribution" />
        <cc:requires
           rdf:resource="http://creativecommons.org/ns#Notice" />
        <cc:requires
           rdf:resource="http://creativecommons.org/ns#Attribution" />
        <cc:permits
           rdf:resource="http://creativecommons.org/ns#DerivativeWorks" />
      </cc:License>
    </rdf:RDF>
  </metadata>
  <g
     transform="matrix(0.66666667,0,0,0.66666667,-5.0396942e-4,-6.0000001e-8)"
     id="g925">
    <path
       style="fill:#88c9f9"
       d="M 19,27.586 V 8.415 l 4.828,-4.829 c 0,0 0.707,-0.707 0,-1.415 -0.707,-0.707 -1.414,0 -1.414,0 L 19,5.586 V 1 C 19,1 19,0 18,0 17,0 17,1 17,1 V 5.586 L 13.586,2.171 c 0,0 -0.707,-0.707 -1.414,0 -0.707,0.708 0,1.415 0,1.415 L 17,8.415 v 19.171 l -4.828,4.828 c 0,0 -0.707,0.707 0,1.414 0.707,0.707 1.414,0 1.414,0 L 17,30.414 V 35 c 0,0 0,1 1,1 1,0 1,-1 1,-1 v -4.586 l 3.414,3.414 c 0,0 0.707,0.707 1.414,0 0.707,-0.707 0,-1.414 0,-1.414 z"
       id="path908" />
    <path
       style="fill:#88c9f9"
       d="M 34.622,20.866 C 34.363,19.9 33.397,20.159 33.397,20.159 L 26.802,21.926 10.199,12.34 8.432,5.745 c 0,0 -0.259,-0.966 -1.225,-0.707 C 6.24,5.297 6.5,6.263 6.5,6.263 L 7.75,10.927 3.778,8.633 c 0,0 -0.866,-0.5 -1.366,0.366 -0.5,0.866 0.366,1.366 0.366,1.366 l 3.971,2.293 -4.664,1.249 c 0,0 -0.967,0.259 -0.707,1.225 0.259,0.967 1.225,0.708 1.225,0.708 l 6.596,-1.767 16.603,9.586 1.767,6.596 c 0,0 0.259,0.966 1.225,0.707 0.966,-0.26 0.707,-1.225 0.707,-1.225 l -1.25,-4.664 3.972,2.293 c 0,0 0.867,0.5 1.367,-0.365 0.5,-0.867 -0.367,-1.367 -0.367,-1.367 l -3.971,-2.293 4.663,-1.249 c 0,-10e-4 0.966,-0.26 0.707,-1.226 z"
       id="path910" />
    <path
       style="fill:#88c9f9"
       d="m 33.915,13.907 -4.664,-1.25 3.972,-2.293 c 0,0 0.867,-0.501 0.367,-1.367 C 33.089,8.13 32.223,8.631 32.223,8.631 l -3.971,2.292 1.249,-4.663 c 0,0 0.259,-0.966 -0.707,-1.225 -0.966,-0.259 -1.225,0.707 -1.225,0.707 L 25.802,12.337 9.198,21.926 2.604,20.158 c 0,0 -0.966,-0.259 -1.225,0.707 -0.26,0.967 0.707,1.225 0.707,1.225 l 4.663,1.249 -3.971,2.293 c 0,0 -0.865,0.501 -0.365,1.367 0.5,0.865 1.365,0.365 1.365,0.365 L 7.75,25.071 6.5,29.734 c 0,0 -0.259,0.967 0.707,1.225 0.967,0.26 1.226,-0.706 1.226,-0.706 l 1.768,-6.597 16.604,-9.585 6.595,1.768 c 0,0 0.966,0.259 1.225,-0.707 0.255,-0.967 -0.71,-1.225 -0.71,-1.225 z"
       id="path912" />
  </g>
</svg>
