<?xml version="1.0" encoding="UTF-8" standalone="no"?>
<svg
   xmlns:dc="http://purl.org/dc/elements/1.1/"
   xmlns:cc="http://creativecommons.org/ns#"
   xmlns:rdf="http://www.w3.org/1999/02/22-rdf-syntax-ns#"
   xmlns:svg="http://www.w3.org/2000/svg"
   xmlns="http://www.w3.org/2000/svg"
   width="24"
   height="24"
   viewBox="0 0 24 24"
   version="1.1"
   id="svg8">
  <title
     id="title832">Star Symbol</title>
  <defs
     id="defs2" />
  <metadata
     id="metadata5">
    <rdf:RDF>
      <cc:Work
         rdf:about="">
        <dc:format>image/svg+xml</dc:format>
        <dc:type
           rdf:resource="http://purl.org/dc/dcmitype/StillImage" />
        <dc:title>Star Symbol</dc:title>
        <dc:creator>
          <cc:Agent>
            <dc:title>Twitter, Inc and other contributors</dc:title>
          </cc:Agent>
        </dc:creator>
        <dc:date>2019</dc:date>
        <dc:publisher>
          <cc:Agent>
            <dc:title></dc:title>
          </cc:Agent>
        </dc:publisher>
        <cc:license
           rdf:resource="http://creativecommons.org/licenses/by/4.0/" />
        <dc:rights>
          <cc:Agent>
            <dc:title>Copyright 2019 Twitter, Inc and other contributors</dc:title>
          </cc:Agent>
        </dc:rights>
        <dc:identifier>90e26d70-df9e-4a27-96ae-704f09c999c7</dc:identifier>
      </cc:Work>
      <cc:License
         rdf:about="http://creativecommons.org/licenses/by/4.0/">
        <cc:permits
           rdf:resource="http://creativecommons.org/ns#Reproduction" />
        <cc:permits
           rdf:resource="http://creativecommons.org/ns#Distribution" />
        <cc:requires
           rdf:resource="http://creativecommons.org/ns#Notice" />
        <cc:requires
           rdf:resource="http://creativecommons.org/ns#Attribution" />
        <cc:permits
           rdf:resource="http://creativecommons.org/ns#DerivativeWorks" />
      </cc:License>
    </rdf:RDF>
  </metadata>
  <path
     style="fill:#ffac33;stroke-width:0.70647109"
     d="m 18.555675,23.999996 c -0.285175,0 -0.56894,-0.08768 -0.813175,-0.26232 L 12.000155,19.612681 6.2578097,23.737676 C 5.7686338,24.088378 5.1121642,24.088378 4.6258119,23.732022 4.1394597,23.379198 3.934754,22.752743 4.1168714,22.180729 L 6.2585155,15.257183 0.56769965,11.240369 C 0.08417087,10.883302 -0.11700533,10.255432 0.0679356,9.6827127 0.2542883,9.1114073 0.78511111,8.7232307 1.3851103,8.7189883 l 7.0482259,-0.010606 2.2439978,-6.751728 c 0.189176,-0.5720126 0.722116,-0.9566539 1.322821,-0.9566539 0.600705,0 1.133645,0.3853484 1.323528,0.9566539 l 2.205879,6.751728 7.084226,0.010606 c 0.602117,0.00425 1.133646,0.3931261 1.317881,0.9637244 0.185647,0.5727193 -0.01553,1.2005893 -0.499764,1.5576563 l -5.690816,4.016814 2.141644,6.923544 c 0.183529,0.572013 -0.0233,1.198468 -0.508235,1.551293 -0.244941,0.179593 -0.531529,0.267976 -0.818823,0.267976 z"
     id="path3834" />
</svg>
