<?xml version="1.0" encoding="UTF-8" standalone="no"?>
<svg
   xmlns:dc="http://purl.org/dc/elements/1.1/"
   xmlns:cc="http://creativecommons.org/ns#"
   xmlns:rdf="http://www.w3.org/1999/02/22-rdf-syntax-ns#"
   xmlns:svg="http://www.w3.org/2000/svg"
   xmlns="http://www.w3.org/2000/svg"
   width="24"
   height="24"
   viewBox="0 0 24 24"
   version="1.1"
   id="svg8">
  <title
     id="title832">Vial Symbol</title>
  <defs
     id="defs2" />
  <metadata
     id="metadata5">
    <rdf:RDF>
      <cc:Work
         rdf:about="">
        <dc:format>image/svg+xml</dc:format>
        <dc:type
           rdf:resource="http://purl.org/dc/dcmitype/StillImage" />
        <dc:title>Vial Symbol</dc:title>
        <dc:creator>
          <cc:Agent>
            <dc:title>Twitter, Inc and other contributors</dc:title>
          </cc:Agent>
        </dc:creator>
        <dc:date>2019</dc:date>
        <dc:publisher>
          <cc:Agent>
            <dc:title />
          </cc:Agent>
        </dc:publisher>
        <cc:license
           rdf:resource="http://creativecommons.org/licenses/by/4.0/" />
        <dc:rights>
          <cc:Agent>
            <dc:title>Copyright 2019 Twitter, Inc and other contributors</dc:title>
          </cc:Agent>
        </dc:rights>
        <dc:identifier>996f445f-6054-49a2-a965-94c1f60d3cb5</dc:identifier>
      </cc:Work>
      <cc:License
         rdf:about="http://creativecommons.org/licenses/by/4.0/">
        <cc:permits
           rdf:resource="http://creativecommons.org/ns#Reproduction" />
        <cc:permits
           rdf:resource="http://creativecommons.org/ns#Distribution" />
        <cc:requires
           rdf:resource="http://creativecommons.org/ns#Notice" />
        <cc:requires
           rdf:resource="http://creativecommons.org/ns#Attribution" />
        <cc:permits
           rdf:resource="http://creativecommons.org/ns#DerivativeWorks" />
      </cc:License>
    </rdf:RDF>
  </metadata>
  <g
     transform="matrix(0.66993893,0,0,0.66993893,-0.07034359,-0.07023582)"
     id="g906">
    <path
       style="fill:#ccd6dd"
       d="M 14.563,14.414 25.47,3.505 32.431,10.467 21.523,21.375 Z"
       id="path883" />
    <path
       style="fill:#68e090"
       d="M 8.103,34.399 C 2.5,34 1.5,30.062 1.635,27.932 1.957,22.862 17.236,11.381 17.236,11.381 l 12.517,1.93 c 0.001,0 -17.389,21.392 -21.65,21.088 z"
       id="path885" />
    <path
       style="fill:#8899a6"
       d="M 32.326,3.708 C 29.405,0.787 26.104,-0.649 24.954,0.502 24.941,0.515 24.932,0.533 24.92,0.546 24.914,0.552 24.905,0.554 24.899,0.56 L 2.295,23.164 c -1.412,1.412 -2.19,3.29 -2.19,5.288 0,1.997 0.778,3.875 2.19,5.287 1.413,1.413 3.291,2.19 5.288,2.19 1.998,0 3.875,-0.777 5.287,-2.189 L 35.474,11.136 c 0.007,-0.007 0.009,-0.016 0.015,-0.023 0.013,-0.012 0.03,-0.02 0.043,-0.033 C 36.683,9.93 35.247,6.629 32.326,3.708 Z M 10.75,31.619 C 9.904,32.465 8.78,32.93 7.584,32.93 6.388,32.93 5.263,32.464 4.417,31.618 3.571,30.772 3.105,29.648 3.105,28.451 c 0,-1.196 0.466,-2.32 1.311,-3.166 L 25.412,4.29 c 0.622,1.144 1.56,2.394 2.749,3.584 1.189,1.189 2.44,2.127 3.584,2.749 z"
       id="path887" />
    <path
       style="fill:#17bf63"
       d="m 29.196,13.144 c -0.058,0.379 -2.627,0.751 -5.691,0.343 -3.063,-0.408 -5.482,-1.223 -5.403,-1.82 0.08,-0.597 2.627,-0.751 5.691,-0.343 3.064,0.408 5.495,1.224 5.403,1.82 z M 10.84,23.247 c -0.31,0.31 -0.813,0.31 -1.123,0 -0.31,-0.31 -0.31,-0.813 0,-1.123 0.31,-0.31 0.813,-0.31 1.123,0 0.31,0.31 0.31,0.813 0,1.123 z m 3.317,2.615 c -0.507,0.507 -1.328,0.506 -1.835,0 -0.506,-0.506 -0.506,-1.328 0,-1.834 0.507,-0.507 1.328,-0.506 1.834,0 0.507,0.506 0.508,1.327 10e-4,1.834 z m 1.677,-5.324 c -0.476,0.476 -1.25,0.476 -1.726,0 -0.476,-0.476 -0.476,-1.249 0,-1.726 0.476,-0.476 1.249,-0.477 1.725,0 0.478,0.477 0.478,1.25 10e-4,1.726 z m -6.868,8.858 c -0.581,0.581 -1.524,0.581 -2.105,0 -0.582,-0.582 -0.581,-1.524 0,-2.105 0.581,-0.581 1.523,-0.581 2.105,0 0.581,0.581 0.582,1.523 0,2.105 z m 11.396,-9.158 c -0.413,0.413 -1.083,0.413 -1.496,0 -0.413,-0.413 -0.412,-1.083 0.001,-1.496 0.414,-0.414 1.083,-0.414 1.496,-0.001 0.413,0.414 0.413,1.083 -0.001,1.497 z M 19.155,15.95 c -0.27,0.27 -0.708,0.27 -0.979,0 -0.27,-0.27 -0.27,-0.708 0,-0.979 0.27,-0.27 0.708,-0.271 0.979,0 0.27,0.271 0.27,0.709 0,0.979 z"
       id="path889" />
    <ellipse
       style="fill:#ccd6dd"
       transform="rotate(-45.001,30.817,5.223)"
       cx="30.816999"
       cy="5.223"
       rx="1.184"
       ry="4.8470001"
       id="ellipse891" />
  </g>
</svg>
