<?xml version="1.0" encoding="UTF-8" standalone="no"?>
<!-- Created with Inkscape (http://www.inkscape.org/) -->

<svg
   xmlns:dc="http://purl.org/dc/elements/1.1/"
   xmlns:cc="http://creativecommons.org/ns#"
   xmlns:rdf="http://www.w3.org/1999/02/22-rdf-syntax-ns#"
   xmlns:svg="http://www.w3.org/2000/svg"
   xmlns="http://www.w3.org/2000/svg"
   xmlns:xlink="http://www.w3.org/1999/xlink"
   xmlns:sodipodi="http://sodipodi.sourceforge.net/DTD/sodipodi-0.dtd"
   xmlns:inkscape="http://www.inkscape.org/namespaces/inkscape"
   width="48"
   height="48"
   viewBox="0 0 12.7 12.7"
   version="1.1"
   id="svg8"
   inkscape:version="0.92.4 (5da689c313, 2019-01-14)"
   sodipodi:docname="icon-dark.svg">
  <defs
     id="defs2">
    <linearGradient
       id="BackgroundGradient">
      <stop
         id="stop4112-4"
         offset="0"
         style="stop-color:#462523;stop-opacity:1" />
      <stop
         style="stop-color:#cb9b51;stop-opacity:1"
         offset="0.31201771"
         id="stop1270" />
      <stop
         style="stop-color:#f6e27a;stop-opacity:1"
         offset="0.44573957"
         id="stop1266" />
      <stop
         style="stop-color:#f6f2c0;stop-opacity:1"
         offset="0.4990342"
         id="stop1262" />
      <stop
         id="stop1264"
         offset="0.55296355"
         style="stop-color:#f6e27a;stop-opacity:1" />
      <stop
         style="stop-color:#cb9b51;stop-opacity:1"
         offset="0.68707448"
         id="stop1268" />
      <stop
         id="stop4114-8"
         offset="1"
         style="stop-color:#462523;stop-opacity:1" />
    </linearGradient>
    <linearGradient
       inkscape:collect="always"
       xlink:href="#BackgroundGradient"
       id="linearGradient1068"
       gradientUnits="userSpaceOnUse"
       gradientTransform="matrix(0,-1.4990603,1.4990023,0,-432.23557,312.06894)"
       x1="10.051733"
       y1="292.58499"
       x2="18.524235"
       y2="292.58499" />
  </defs>
  <sodipodi:namedview
     id="base"
     pagecolor="#ffffff"
     bordercolor="#666666"
     borderopacity="1.0"
     inkscape:pageopacity="0.0"
     inkscape:pageshadow="2"
     inkscape:zoom="16"
     inkscape:cx="19.491223"
     inkscape:cy="15.133107"
     inkscape:document-units="px"
     inkscape:current-layer="layer1"
     showgrid="false"
     units="px"
     inkscape:snap-object-midpoints="true"
     inkscape:snap-center="true"
     inkscape:snap-page="true"
     inkscape:snap-midpoints="false"
     inkscape:window-width="2560"
     inkscape:window-height="1377"
     inkscape:window-x="1912"
     inkscape:window-y="-8"
     inkscape:window-maximized="1"
     inkscape:snap-global="true"
     inkscape:object-nodes="true"
     inkscape:snap-intersection-paths="false"
     inkscape:object-paths="true" />
  <metadata
     id="metadata5">
    <rdf:RDF>
      <cc:Work
         rdf:about="">
        <dc:format>image/svg+xml</dc:format>
        <dc:type
           rdf:resource="http://purl.org/dc/dcmitype/StillImage" />
        <dc:title />
      </cc:Work>
    </rdf:RDF>
  </metadata>
  <g
     inkscape:label="Layer"
     inkscape:groupmode="layer"
     id="layer1"
     transform="translate(0,-284.3)">
    <path
       style="fill:url(#linearGradient1068);fill-opacity:1;stroke:none;stroke-width:0.01239432;stroke-opacity:1"
       id="path1066"
       d="M 4.8808878e-4,292.61856 0.00798809,288.6574 c 0.003,-1.25701 0.003,-1.88551 0.2189144,-2.56164 0.2702851,-0.73818 0.85329211,-1.31892 1.59246491,-1.58634 0.6769499,-0.21262 1.3054213,-0.21139 2.5623803,-0.20893 l 3.961038,0.007 c 1.256959,0.003 1.8854303,0.003 2.5615393,0.21892 0.738125,0.2703 1.318867,0.85332 1.586275,1.59255 0.212588,0.67697 0.211359,1.30547 0.208916,2.56246 l -0.0075,3.96118 c -0.003,1.25701 -0.003,1.88551 -0.218915,2.56165 -0.2703,0.73817 -0.853292,1.31891 -1.59248,1.58633 -0.67695,0.2126 -1.3054213,0.21139 -2.5623783,0.20893 l -3.96104,-0.007 c -1.256942,-0.003 -1.8854149,-0.003 -2.5615245,-0.21892 -0.7381386,-0.27031 -1.31886711,-0.85332 -1.58627411,-1.59254 -0.2126034,-0.67698 -0.2113742,-1.30547 -0.20891580144,-2.56249 v 0"
       inkscape:connector-curvature="0"
       inkscape:label="Background" />
    <path
       style="display:inline;fill:#121212;fill-opacity:1;stroke:none;stroke-width:0.01239445;stroke-opacity:1"
       d="m 4.3818138,284.30067 c -1.2570124,-0.003 -1.8857649,-0.005 -2.5627435,0.20852 -0.7392047,0.26742 -1.32192184,0.8486 -1.5922185,1.58676 -0.21592563,0.67612 -0.21637776,1.30414 -0.21937578,2.56112 l -0.006975304,3.96104 c -0.002460106,1.257 -0.004095166,1.88572 0.208523274,2.56268 0.2674185,0.7392 0.84862201,1.32188 1.58679231,1.59217 0.6761389,0.21592 1.3041956,0.21637 2.561193,0.21937 l 3.961167,0.007 c 1.2570125,0.003 1.8857647,0.005 2.5627427,-0.20852 0.73922,-0.2674 1.321907,-0.84858 1.592219,-1.58673 0.215924,-0.67612 0.216376,-1.30417 0.219376,-2.56113 l 0.007,-3.96106 c 0.0024,-1.25696 0.0041,-1.88571 -0.208523,-2.56266 -0.267419,-0.73922 -0.848637,-1.32188 -1.586793,-1.59218 -0.676138,-0.21592 -1.3041799,-0.21638 -2.5611924,-0.21938 z m 1.9503515,1.68675 a 0.41782302,0.41781148 0 0 1 0.035658,0 l 2.8588619,0.11701 a 0.41782302,0.41781148 0 0 1 0.051162,0.006 0.41782302,0.41781148 0 0 1 0.032557,0.007 0.41782302,0.41781148 0 0 1 0.017055,0.005 0.41782302,0.41781148 0 0 1 0.00387,7.6e-4 0.41782302,0.41781148 0 0 1 0.027132,0.009 0.41782302,0.41781148 0 0 1 0.00387,0.002 0.41782302,0.41781148 0 0 1 0.015503,0.007 0.41782302,0.41781148 0 0 1 0.197671,0.17826 l 1.6053958,2.89756 a 0.41782302,0.41781148 0 0 1 0.04418,0.12871 l 0.424024,2.38826 a 0.41782302,0.41781148 0 0 1 -0.05736,0.35037 l -1.960429,2.85955 a 0.41782302,0.41781148 0 0 1 -0.2372049,0.16745 l -2.9309536,0.78059 -0.00465,0.002 a 0.41782302,0.41781148 0 0 1 -0.055814,0.0105 0.41782302,0.41781148 0 0 1 -0.00232,7.6e-4 0.41782302,0.41781148 0 0 1 -0.034884,0.003 0.41782302,0.41781148 0 0 1 -0.041859,0 0.41782302,0.41781148 0 0 1 -0.1015485,-0.0193 L 3.305857,295.11219 A 0.41782302,0.41781148 0 0 1 3.068652,294.94475 L 1.1082231,292.0852 a 0.41782302,0.41781148 0 0 1 -0.057364,-0.34959 l 0.4278955,-2.39834 a 0.41782302,0.41781148 0 0 1 0.044186,-0.12871 L 3.1283374,286.311 a 0.41782302,0.41781148 0 0 1 0.3403038,-0.21393 0.41782302,0.41781148 0 0 1 0.040309,-0.002 0.41782302,0.41781148 0 0 1 0.059689,0.006 l 2.7635149,-0.11311 z m -2.6309593,1.01467 -1.413152,2.55183 -0.2023219,1.13717 0.5418506,-0.49843 1.136413,-3.17584 z m 5.2975765,0 -0.062015,0.015 1.1402895,3.18436 0.54185,0.49843 -0.202322,-1.13716 z m -4.3913916,0.13485 -1.1263357,3.1456 2.8689392,2.06889 2.8673887,-2.06811 -1.1247853,-3.14638 z m -1.5945441,3.84093 -1.0108341,0.93172 1.6674111,2.434 2.2611983,0.60385 v -1.86891 z m 6.6711946,0 -2.9154498,2.10066 v 1.86891 l 2.2619732,-0.60385 1.6666362,-2.43245 -0.547277,-0.50462 z"
       id="path1056"
       inkscape:connector-curvature="0"
       inkscape:label="Mask" />
  </g>
</svg>
