<?xml version="1.0" encoding="UTF-8" standalone="no"?>
<!-- Created with Inkscape (http://www.inkscape.org/) -->

<svg
   xmlns:dc="http://purl.org/dc/elements/1.1/"
   xmlns:cc="http://creativecommons.org/ns#"
   xmlns:rdf="http://www.w3.org/1999/02/22-rdf-syntax-ns#"
   xmlns:svg="http://www.w3.org/2000/svg"
   xmlns="http://www.w3.org/2000/svg"
   xmlns:xlink="http://www.w3.org/1999/xlink"
   xmlns:sodipodi="http://sodipodi.sourceforge.net/DTD/sodipodi-0.dtd"
   xmlns:inkscape="http://www.inkscape.org/namespaces/inkscape"
   width="48"
   height="48"
   viewBox="0 0 12.7 12.7"
   version="1.1"
   id="svg8"
   inkscape:version="0.92.4 (5da689c313, 2019-01-14)"
   sodipodi:docname="icon.svg">
  <defs
     id="defs2">
    <linearGradient
       id="BackgroundGradient">
      <stop
         id="stop4112-4"
         offset="0"
         style="stop-color:#134e48;stop-opacity:1" />
      <stop
         id="stop4114-8"
         offset="1"
         style="stop-color:#a0ff9f;stop-opacity:1" />
    </linearGradient>
    <linearGradient
       inkscape:collect="always"
       xlink:href="#BackgroundGradient"
       id="linearGradient1068"
       gradientUnits="userSpaceOnUse"
       gradientTransform="matrix(0,-1.4990603,1.4990023,0,-432.23557,312.06894)"
       x1="10.051733"
       y1="292.58499"
       x2="18.524235"
       y2="292.58499" />
  </defs>
  <sodipodi:namedview
     id="base"
     pagecolor="#ffffff"
     bordercolor="#666666"
     borderopacity="1.0"
     inkscape:pageopacity="0.0"
     inkscape:pageshadow="2"
     inkscape:zoom="11.313709"
     inkscape:cx="20.165189"
     inkscape:cy="20.748187"
     inkscape:document-units="px"
     inkscape:current-layer="layer1"
     showgrid="false"
     units="px"
     inkscape:snap-object-midpoints="true"
     inkscape:snap-center="true"
     inkscape:snap-page="true"
     inkscape:snap-midpoints="false"
     inkscape:window-width="2560"
     inkscape:window-height="1377"
     inkscape:window-x="1912"
     inkscape:window-y="-8"
     inkscape:window-maximized="1"
     inkscape:snap-global="true"
     inkscape:object-nodes="true"
     inkscape:snap-intersection-paths="false"
     inkscape:object-paths="true"
     showguides="false" />
  <metadata
     id="metadata5">
    <rdf:RDF>
      <cc:Work
         rdf:about="">
        <dc:format>image/svg+xml</dc:format>
        <dc:type
           rdf:resource="http://purl.org/dc/dcmitype/StillImage" />
        <dc:title />
      </cc:Work>
    </rdf:RDF>
  </metadata>
  <g
     inkscape:label="Layer"
     inkscape:groupmode="layer"
     id="layer1"
     transform="translate(0,-284.3)">
    <path
       style="fill:url(#linearGradient1068);fill-opacity:1;stroke:none;stroke-width:0.01239432;stroke-opacity:1"
       id="path1066"
       d="M 4.8812622e-4,292.61856 0.00798813,288.6574 c 0.003,-1.25701 0.003,-1.88551 0.21891441,-2.56164 0.27028504,-0.73818 0.85329206,-1.31892 1.59246486,-1.58634 0.6769499,-0.21262 1.3054212,-0.21139 2.5623802,-0.20893 l 3.9610379,0.007 c 1.256959,0.003 1.8854305,0.003 2.5615395,0.21892 0.738125,0.2703 1.318867,0.85332 1.586275,1.59255 0.212588,0.67697 0.211359,1.30547 0.208916,2.56246 l -0.0075,3.96118 c -0.003,1.25701 -0.003,1.88551 -0.218915,2.56165 -0.2703,0.73817 -0.853292,1.31891 -1.59248,1.58633 -0.67695,0.2126 -1.305421,0.21139 -2.5623785,0.20893 l -3.9610394,-0.007 c -1.2569425,-0.003 -1.8854153,-0.003 -2.5615249,-0.21892 -0.7381386,-0.27031 -1.31886706,-0.85332 -1.58627405,-1.59254 -0.21260347,-0.67698 -0.21137422,-1.30547 -0.20891587272,-2.56249 v 0"
       inkscape:connector-curvature="0"
       inkscape:label="Background" />
    <path
       inkscape:connector-curvature="0"
       id="path4537"
       d="m 6.33243,285.9738 -2.8416871,0.11731 h -0.00465 a 0.41609478,0.41609478 0 0 0 -0.011369,0 0.41609478,0.41609478 0 0 0 -0.029972,0.004 0.41609478,0.41609478 0 0 0 -0.081132,0.0202 0.41609478,0.41609478 0 0 0 -0.2253093,0.19068 l -1.5993848,2.8851 a 0.41609478,0.41609478 0 0 0 -0.044959,0.13022 l -0.4247802,2.39675 a 0.41609478,0.41609478 0 0 0 0,5.3e-4 l -0.00362,0.0207 a 0.41609478,0.41609478 0 0 0 -0.00517,0.0413 0.41609478,0.41609478 0 0 0 0.035657,0.20257 0.41609478,0.41609478 0 0 0 0.01912,0.0372 0.41609478,0.41609478 0 0 0 0.015503,0.0263 l 1.9507853,2.84789 a 0.41609478,0.41609478 0 0 0 0.2356445,0.1664 l 2.9259196,0.77979 a 0.41609478,0.41609478 0 0 0 0.03669,0.008 0.41609478,0.41609478 0 0 0 0.062012,0.006 0.41609478,0.41609478 0 0 0 0.066146,-0.004 0.41609478,0.41609478 0 0 0 0.00982,-0.002 0.41609478,0.41609478 0 0 0 0.039274,-0.008 l 2.9259196,-0.7798 a 0.41609478,0.41609478 0 0 0 0.2356445,-0.1664 l 1.9507849,-2.84789 a 0.41609478,0.41609478 0 0 0 0.06563,-0.30747 l -0.0016,-0.0103 a 0.41609478,0.41609478 0 0 0 -0.001,-0.004 l -0.425805,-2.40401 a 0.41609478,0.41609478 0 0 0 -0.04547,-0.12971 l -1.600419,-2.88561 a 0.41609478,0.41609478 0 0 0 -0.01292,-0.0217 0.41609478,0.41609478 0 0 0 -0.00206,-0.003 0.41609478,0.41609478 0 0 0 -0.021704,-0.0305 0.41609478,0.41609478 0 0 0 -5.292e-4,-5.2e-4 0.41609478,0.41609478 0 0 0 -0.026872,-0.031 0.41609478,0.41609478 0 0 0 -0.00465,-0.005 0.41609478,0.41609478 0 0 0 -0.016536,-0.0155 0.41609478,0.41609478 0 0 0 -0.013435,-0.0119 0.41609478,0.41609478 0 0 0 -0.028422,-0.0217 0.41609478,0.41609478 0 0 0 -0.00672,-0.004 0.41609478,0.41609478 0 0 0 -0.014986,-0.01 0.41609478,0.41609478 0 0 0 -0.02222,-0.0124 0.41609478,0.41609478 0 0 0 -0.018087,-0.009 0.41609478,0.41609478 0 0 0 -0.019121,-0.008 0.41609478,0.41609478 0 0 0 -0.016537,-0.006 0.41609478,0.41609478 0 0 0 -0.024289,-0.008 0.41609478,0.41609478 0 0 0 -0.011885,-0.004 0.41609478,0.41609478 0 0 0 -0.034623,-0.007 0.41609478,0.41609478 0 0 0 -0.00414,-5.2e-4 0.41609478,0.41609478 0 0 0 -0.037207,-0.005 0.41609478,0.41609478 0 0 0 -0.00362,0 0.41609478,0.41609478 0 0 0 -0.00568,-5.1e-4 l -2.8478734,-0.1165 a 0.41609478,0.41609478 0 0 0 -0.034106,0 z m -2.618445,1.01079 0.024805,0.006 0.034107,0.008 -1.1348146,3.17242 -0.236678,0.21859 -0.3017904,0.27802 0.2020549,-1.13378 z m 5.2720298,0 1.4128332,2.5492 0.201538,1.13378 -0.537951,-0.49609 -0.1813845,-0.50592 -0.9549805,-2.6665 z m -4.3713095,0.13333 h 3.4705893 l 1.1213785,3.1352 -0.7958172,0.57413 -2.0603392,1.48621 h -5.168e-4 l -2.8566731,-2.06085 1.0635009,-2.97346 z m -1.5859495,3.8256 2.9052487,2.09445 v 1.8588 L 3.6814289,294.29681 2.0205485,291.8737 Z m 6.6430053,0 1.0066569,0.93018 -1.6593303,2.42311 -2.2530924,0.59996 v -1.8588 z"
       style="color:#000000;font-style:normal;font-variant:normal;font-weight:normal;font-stretch:normal;font-size:medium;line-height:normal;font-family:sans-serif;font-variant-ligatures:normal;font-variant-position:normal;font-variant-caps:normal;font-variant-numeric:normal;font-variant-alternates:normal;font-feature-settings:normal;text-indent:0;text-align:start;text-decoration:none;text-decoration-line:none;text-decoration-style:solid;text-decoration-color:#000000;letter-spacing:normal;word-spacing:normal;text-transform:none;writing-mode:lr-tb;direction:ltr;text-orientation:mixed;dominant-baseline:auto;baseline-shift:baseline;text-anchor:start;white-space:normal;shape-padding:0;clip-rule:nonzero;display:inline;overflow:visible;visibility:visible;opacity:1;isolation:auto;mix-blend-mode:normal;color-interpolation:sRGB;color-interpolation-filters:linearRGB;solid-color:#000000;solid-opacity:1;vector-effect:none;fill:#ffffff;fill-opacity:1;fill-rule:nonzero;stroke:none;stroke-width:0.83210635;stroke-linecap:butt;stroke-linejoin:round;stroke-miterlimit:4;stroke-dasharray:none;stroke-dashoffset:0;stroke-opacity:1;color-rendering:auto;image-rendering:auto;shape-rendering:auto;text-rendering:auto;enable-background:accumulate"
       inkscape:label="Logo" />
  </g>
</svg>
