<svg xmlns="http://www.w3.org/2000/svg" width="48" height="48"><path fill="none" d="M-1-1h582v402H-1z"/><g><path fill="#fff" d="M24 3l-12 .6a1.7 1.8 0 0 0-.1 0 1.7 1.8 0 0 0-.4 0 1.7 1.8 0 0 0-.9.9L3.9 16.7a1.7 1.8 0 0 0-.2.6L2 27.4a1.7 1.8 0 0 0 0 .3 1.7 1.8 0 0 0 0 .8 1.7 1.8 0 0 0 .2.2L10.4 41a1.7 1.8 0 0 0 1 .7l12.2 3.3a1.7 1.8 0 0 0 .1 0 1.7 1.8 0 0 0 .3 0 1.7 1.8 0 0 0 .2 0 1.7 1.8 0 0 0 .2 0l12.3-3.3a1.7 1.8 0 0 0 1-.8l8-12a1.7 1.8 0 0 0 .3-1.3l-1.7-10.2a1.7 1.8 0 0 0-.2-.6L37.4 4.5a1.7 1.8 0 0 0 0-.1 1.7 1.8 0 0 0-.2-.1 1.7 1.8 0 0 0 0-.2 1.7 1.8 0 0 0-.2 0 1.7 1.8 0 0 0 0-.1 1.7 1.8 0 0 0-.1-.1 1.7 1.8 0 0 0-.1 0 1.7 1.8 0 0 0-.1-.1 1.7 1.8 0 0 0-.2 0 1.7 1.8 0 0 0 0-.1 1.7 1.8 0 0 0-.1 0 1.7 1.8 0 0 0-.2-.1 1.7 1.8 0 0 0-.2 0L24 3zM13 7.5h.2L8.5 21l-1 .9L6.3 23l.8-4.8L13 7.4zm22 0l5.9 10.8.8 4.8-2.2-2.1-.8-2.2-4-11.3h.3zm-18.2.5h14.4L36 21.2l-3.3 2.4L24 30l-12-8.7 4.5-12.6.3-.7zM10 24.1L22.3 33v7.9l-9.4-2.6-7-10.2 4.2-4zm27.8 0l4.2 4-7 10.2-9.4 2.6v-8L38 24.2z"/></g></svg>