<svg xmlns="http://www.w3.org/2000/svg" width="496" height="470" version="1"><path style="shape-padding:0;isolation:auto;mix-blend-mode:normal" fill="#fff" d="M248 0L134 5c-13 2-30-2-36 10L22 154c-7 27-10 55-16 83-1 16-8 33-5 49 23 37 48 72 72 109 10 12 16 28 29 37l94 26c17 3 34 11 52 12 18-1 35-9 52-12l94-26c13-9 19-25 29-37 24-37 49-72 72-109 3-16-4-33-5-49-6-28-9-56-16-83L398 15c-6-12-23-8-36-10L248 0zM123 49h3c-17 50-36 100-52 150l-26 25 9-53c22-41 45-81 66-122zm247 0h3c21 41 44 81 66 122l9 53-26-25c-16-50-35-100-52-150zm-205 6h166l52 149-134 98h-2l-134-98zM92 237l135 99v89l-105-29-77-115 47-44zm312 0l47 44-77 115-105 29v-89l135-99z" color="#fff"/></svg>