<svg xmlns="http://www.w3.org/2000/svg" xmlns:xlink="http://www.w3.org/1999/xlink" width="32" height="32"><defs><linearGradient id="a"><stop offset="0" stop-color="#00add9"/><stop offset="1" stop-color="#30f2e2"/></linearGradient><linearGradient id="b" x1=".5" x2="31.5" y1="16" y2="16" gradientTransform="matrix(0 -1.03226 1.03194 0 -.52 32.52)" gradientUnits="userSpaceOnUse" xlink:href="#a"/></defs><metadata/><path fill="url(#b)" d="M0 21V11c0-3.16 0-4.75.54-6.45a6.7 6.7 0 014-4.01C6.26 0 7.84 0 11.02 0h9.97c3.17 0 4.76 0 6.46.54a6.7 6.7 0 014.01 4c.54 1.71.54 3.3.54 6.47v9.98c0 3.17 0 4.76-.54 6.46a6.7 6.7 0 01-4 4.01c-1.7.54-3.3.54-6.47.54h-9.97c-3.17 0-4.76 0-6.46-.54a6.7 6.7 0 01-4.01-4C0 25.74 0 24.15 0 20.98"/><g fill="none" stroke="#fff" stroke-linecap="round" stroke-linejoin="round" stroke-width="2.05"><path d="M15.52 30.11l-8.9-2.48-6.1-8.45 1.2-7.7 4.9-8.74 8.9-.61 8.89.6 4.9 8.75 1.2 7.7-6.1 8.45zm0-7.63v7.63M.53 19.18l4.73-3.98M9.35 3.85L6.63 2.74m15.05 1.11l2.73-1.11m1.36 12.46l4.73 3.98" transform="matrix(.73314 0 0 .73201 4.62 4.2)"/><path d="M21.68 3.85H9.35L5.26 15.2l10.26 7.28 10.25-7.28z" transform="matrix(.73314 0 0 .73201 4.62 4.2)"/></g></svg>